<svg width="32" height="29" viewBox="0 0 32 29" fill="none" xmlns="http://www.w3.org/2000/svg">
<path d="M22.9744 5.41025H3.28205C2.84682 5.41025 2.42942 5.58314 2.12167 5.89089C1.81391 6.19865 1.64102 6.61605 1.64102 7.05127V20.1795C1.64102 20.6147 1.81391 21.0321 2.12167 21.3399C2.42942 21.6476 2.84682 21.8205 3.28205 21.8205H22.9744C23.4096 21.8205 23.827 21.6476 24.1347 21.3399C24.4425 21.0321 24.6154 20.6147 24.6154 20.1795V7.05127C24.6154 6.61605 24.4425 6.19865 24.1347 5.89089C23.827 5.58314 23.4096 5.41025 22.9744 5.41025ZM22.9744 7.05127V9.51281H3.28205V7.05127H22.9744ZM22.9744 20.1795H3.28205V11.1538H22.9744V20.1795ZM21.3333 17.7179C21.3333 17.9356 21.2469 18.1443 21.093 18.2981C20.9391 18.452 20.7304 18.5385 20.5128 18.5385H17.2308C17.0132 18.5385 16.8045 18.452 16.6506 18.2981C16.4967 18.1443 16.4103 17.9356 16.4103 17.7179C16.4103 17.5003 16.4967 17.2916 16.6506 17.1378C16.8045 16.9839 17.0132 16.8974 17.2308 16.8974H20.5128C20.7304 16.8974 20.9391 16.9839 21.093 17.1378C21.2469 17.2916 21.3333 17.5003 21.3333 17.7179ZM14.7692 17.7179C14.7692 17.9356 14.6828 18.1443 14.5289 18.2981C14.375 18.452 14.1663 18.5385 13.9487 18.5385H12.3077C12.0901 18.5385 11.8814 18.452 11.7275 18.2981C11.5736 18.1443 11.4872 17.9356 11.4872 17.7179C11.4872 17.5003 11.5736 17.2916 11.7275 17.1378C11.8814 16.9839 12.0901 16.8974 12.3077 16.8974H13.9487C14.1663 16.8974 14.375 16.9839 14.5289 17.1378C14.6828 17.2916 14.7692 17.5003 14.7692 17.7179Z" fill="white"/>
<path d="M30.0583 25.6084L26.3672 21.9181C27.437 20.6337 27.9705 18.9863 27.8566 17.3186C27.7428 15.6509 26.9903 14.0913 25.7559 12.9643C24.5214 11.8372 22.9 11.2294 21.2288 11.2674C19.5577 11.3054 17.9655 11.9862 16.7836 13.1682C15.6016 14.3502 14.9208 15.9423 14.8828 17.6135C14.8448 19.2846 15.4526 20.906 16.5797 22.1405C17.7067 23.375 19.2663 24.1274 20.934 24.2412C22.6017 24.3551 24.2491 23.8216 25.5335 22.7518L29.2238 26.4429C29.2786 26.4977 29.3436 26.5411 29.4152 26.5708C29.4868 26.6004 29.5635 26.6157 29.641 26.6157C29.7185 26.6157 29.7952 26.6004 29.8668 26.5708C29.9384 26.5411 30.0035 26.4977 30.0583 26.4429C30.1131 26.3881 30.1565 26.323 30.1862 26.2514C30.2158 26.1799 30.2311 26.1031 30.2311 26.0256C30.2311 25.9481 30.2158 25.8714 30.1862 25.7998C30.1565 25.7282 30.1131 25.6632 30.0583 25.6084ZM16.0769 17.7692C16.0769 16.7195 16.3882 15.6933 16.9714 14.8204C17.5546 13.9476 18.3836 13.2673 19.3534 12.8656C20.3233 12.4638 21.3905 12.3587 22.4201 12.5635C23.4497 12.7683 24.3954 13.2738 25.1377 14.0161C25.88 14.7584 26.3855 15.7041 26.5903 16.7337C26.7951 17.7633 26.69 18.8305 26.2883 19.8004C25.8866 20.7702 25.2062 21.5992 24.3334 22.1824C23.4606 22.7656 22.4344 23.0769 21.3846 23.0769C19.9774 23.0754 18.6283 22.5156 17.6332 21.5206C16.6382 20.5256 16.0785 19.1764 16.0769 17.7692Z" fill="white"/>
</svg>
