<svg width="184" height="64" viewBox="0 0 184 64" fill="none" xmlns="http://www.w3.org/2000/svg">
<path d="M43.5 37C43.5 35.8065 43.0259 34.6619 42.182 33.818C41.3381 32.9741 40.1935 32.5 39 32.5H25.5V30.8125C26.7875 30.4781 27.9277 29.7261 28.742 28.6742C29.5563 27.6224 29.9987 26.3302 30 25C30 19.75 25.0425 16.3919 24.8325 16.2512C24.586 16.0868 24.2963 15.999 24 15.999C23.7037 15.999 23.414 16.0868 23.1675 16.2512C22.9575 16.3919 18 19.75 18 25C18.0013 26.3302 18.4437 27.6224 19.258 28.6742C20.0723 29.7261 21.2125 30.4781 22.5 30.8125V32.5H9C7.80653 32.5 6.66193 32.9741 5.81802 33.818C4.97411 34.6619 4.5 35.8065 4.5 37V41.3744C4.50154 43.0107 5.02723 44.6036 6 45.9194V53.5C6 54.6935 6.47411 55.8381 7.31802 56.682C8.16193 57.5259 9.30653 58 10.5 58H37.5C38.6935 58 39.8381 57.5259 40.682 56.682C41.5259 55.8381 42 54.6935 42 53.5V45.9194C42.9728 44.6036 43.4985 43.0107 43.5 41.3744V37ZM21 25C21 22.4556 22.875 20.4137 24 19.4144C25.125 20.4137 27 22.4556 27 25C27 25.7956 26.6839 26.5587 26.1213 27.1213C25.5587 27.6839 24.7956 28 24 28C23.2044 28 22.4413 27.6839 21.8787 27.1213C21.3161 26.5587 21 25.7956 21 25ZM7.5 37C7.5 36.6022 7.65804 36.2206 7.93934 35.9393C8.22064 35.658 8.60218 35.5 9 35.5H39C39.3978 35.5 39.7794 35.658 40.0607 35.9393C40.342 36.2206 40.5 36.6022 40.5 37V41.3744C40.5 43.8587 38.5387 45.9325 36.1275 45.9981C35.5261 46.0152 34.9273 45.9114 34.3667 45.693C33.806 45.4747 33.2949 45.1461 32.8634 44.7267C32.432 44.3073 32.0891 43.8057 31.8549 43.2515C31.6207 42.6972 31.5 42.1017 31.5 41.5C31.5 41.1022 31.342 40.7206 31.0607 40.4393C30.7794 40.158 30.3978 40 30 40C29.6022 40 29.2206 40.158 28.9393 40.4393C28.658 40.7206 28.5 41.1022 28.5 41.5C28.5 42.6935 28.0259 43.8381 27.182 44.682C26.3381 45.5259 25.1935 46 24 46C22.8065 46 21.6619 45.5259 20.818 44.682C19.9741 43.8381 19.5 42.6935 19.5 41.5C19.5 41.1022 19.342 40.7206 19.0607 40.4393C18.7794 40.158 18.3978 40 18 40C17.6022 40 17.2206 40.158 16.9393 40.4393C16.658 40.7206 16.5 41.1022 16.5 41.5C16.5002 42.1018 16.3798 42.6976 16.1457 43.252C15.9116 43.8065 15.5687 44.3083 15.1372 44.7279C14.7058 45.1475 14.1945 45.4763 13.6338 45.6948C13.073 45.9133 12.4741 46.017 11.8725 46C9.46125 45.9325 7.5 43.8587 7.5 41.3744V37ZM37.5 55H10.5C10.1022 55 9.72064 54.842 9.43934 54.5607C9.15804 54.2794 9 53.8978 9 53.5V48.355C9.87804 48.7529 10.8264 48.9721 11.79 49C12.7925 49.0312 13.7909 48.8594 14.7253 48.495C15.6597 48.1306 16.5108 47.581 17.2275 46.8794C17.5073 46.6066 17.7656 46.3126 18 46C18.6986 46.9315 19.6045 47.6875 20.6459 48.2082C21.6873 48.7289 22.8357 49 24 49C25.1643 49 26.3127 48.7289 27.3541 48.2082C28.3955 47.6875 29.3014 46.9315 30 46C30.2352 46.3114 30.4941 46.6041 30.7744 46.8756C32.1698 48.2424 34.0468 49.0055 36 49C36.0713 49 36.1425 49 36.2137 49C37.176 48.9716 38.1231 48.7524 39 48.355V53.5C39 53.8978 38.842 54.2794 38.5607 54.5607C38.2794 54.842 37.8978 55 37.5 55Z" fill="#F87171"/>
<path d="M37.2942 21.0263L34.2942 15.8301C34.1616 15.6004 34.1257 15.3275 34.1943 15.0713C34.263 14.8151 34.4306 14.5967 34.6603 14.4641C34.89 14.3315 35.1629 14.2955 35.4191 14.3642C35.6753 14.4328 35.8937 14.6004 36.0263 14.8301L39.0263 20.0263C39.1589 20.256 39.1948 20.5289 39.1262 20.7851C39.0575 21.0413 38.89 21.2597 38.6603 21.3923C38.4306 21.5249 38.1576 21.5608 37.9014 21.4922C37.6453 21.4235 37.4268 21.256 37.2942 21.0263ZM49.8827 6.83011L61.3827 26.7487C61.5153 26.9784 61.5512 27.2513 61.4826 27.5075C61.414 27.7637 61.2464 27.9821 61.0167 28.1147C60.787 28.2473 60.514 28.2833 60.2579 28.2146C60.0017 28.146 59.7833 27.9784 59.6506 27.7487L56.6506 22.5525L51.4545 25.5525C51.2248 25.6852 50.9519 25.7211 50.6957 25.6524C50.4395 25.5838 50.2211 25.4162 50.0885 25.1865C48.931 23.0888 48.0012 20.8733 47.3151 18.5778C45.8431 13.5834 46.1539 9.48667 48.2163 6.73133C48.3154 6.59889 48.4459 6.4931 48.5959 6.42346C48.746 6.35381 48.9109 6.32248 49.0761 6.33227C49.2412 6.34206 49.4014 6.39267 49.5421 6.47955C49.6829 6.56644 49.7999 6.68689 49.8827 6.83011ZM49.0194 9.33483C47.0725 14.0052 50.1311 20.8779 51.353 23.3017L55.6506 20.8205L49.0194 9.33483ZM39.3966 12.6952C39.314 12.5913 39.2115 12.5048 39.0951 12.4409C38.9788 12.377 38.8508 12.3369 38.7188 12.323C38.5868 12.3091 38.4533 12.3215 38.3262 12.3597C38.199 12.3979 38.0807 12.461 37.9783 12.5454C37.8758 12.6298 37.7911 12.7337 37.7292 12.8512C37.6673 12.9686 37.6294 13.0972 37.6177 13.2295C37.606 13.3617 37.6208 13.495 37.6611 13.6214C37.7015 13.7479 37.7666 13.8651 37.8528 13.9661L41.6637 18.5945C42.1942 19.5132 42.3379 20.605 42.0633 21.6297C41.7888 22.6545 41.1184 23.5281 40.1996 24.0586C39.2809 24.589 38.1891 24.7327 37.1644 24.4582C36.1396 24.1836 35.266 23.5132 34.7355 22.5945L32.6317 16.9805C32.5873 16.8554 32.5183 16.7404 32.429 16.6422C32.3396 16.544 32.2316 16.4646 32.1113 16.4086C31.9909 16.3526 31.8606 16.3211 31.7279 16.316C31.5953 16.3109 31.4629 16.3323 31.3386 16.3788C31.2143 16.4254 31.1005 16.4963 31.0038 16.5873C30.9072 16.6783 30.8296 16.7877 30.7757 16.909C30.7217 17.0303 30.6925 17.1611 30.6896 17.2938C30.6868 17.4266 30.7104 17.5585 30.7591 17.6821L32.8931 23.3782C32.9127 23.4294 32.9365 23.4789 32.9641 23.5263C33.6745 24.7527 34.7955 25.6885 36.129 26.1684C37.4626 26.6483 38.9228 26.6413 40.2517 26.1488L45.7942 35.7487C45.9268 35.9784 46.1453 36.146 46.4014 36.2146C46.6576 36.2833 46.9306 36.2473 47.1603 36.1147C47.39 35.9821 47.5575 35.7637 47.6262 35.5075C47.6948 35.2513 47.6589 34.9784 47.5263 34.7487L41.9838 25.1488C43.0748 24.2442 43.8109 22.983 44.0621 21.5882C44.3133 20.1934 44.0633 18.7547 43.3564 17.5263C43.3288 17.4788 43.2975 17.4337 43.2626 17.3913L39.3966 12.6952Z" fill="black"/>
<path d="M60.8386 52.24C59.9453 52.24 59.1053 52.0667 58.3186 51.72C57.6386 51.9733 56.9053 52.1 56.1186 52.1C55.3453 52.1 54.9319 52.0933 54.8786 52.08C54.8786 51.16 55.2453 49.1733 55.9786 46.12C56.7119 43.0533 57.0786 41.3133 57.0786 40.9C57.0786 40.4733 56.9986 40.0933 56.8386 39.76C56.6919 39.4267 56.5386 39.1733 56.3786 39L56.1586 38.76L56.2186 38.3C56.6053 38.2067 57.3786 38.1 58.5386 37.98C59.7119 37.86 60.7253 37.8 61.5786 37.8C63.6319 37.8 65.1519 38.2267 66.1386 39.08C67.1386 39.92 67.6386 41.2733 67.6386 43.14C67.6386 44.5933 67.3719 46.0067 66.8386 47.38C66.3186 48.74 65.5253 49.8933 64.4586 50.84C63.3919 51.7733 62.1853 52.24 60.8386 52.24ZM61.8586 39.22C61.6186 39.22 61.3586 39.24 61.0786 39.28C61.0386 40.0533 60.6986 41.8333 60.0586 44.62C59.4186 47.3933 59.0253 49.2933 58.8786 50.32C59.1186 50.44 59.4053 50.5 59.7386 50.5C60.4453 50.5 61.0719 50.18 61.6186 49.54C62.1786 48.9 62.6053 48.1 62.8986 47.14C63.4719 45.1933 63.7586 43.4267 63.7586 41.84C63.7586 40.88 63.6119 40.2067 63.3186 39.82C63.0386 39.42 62.5519 39.22 61.8586 39.22ZM68.0719 48.38C68.0719 46.7267 68.5719 45.44 69.5719 44.52C70.5852 43.6 71.8319 43.14 73.3119 43.14C74.3385 43.14 75.1585 43.3667 75.7719 43.82C76.3985 44.26 76.7119 44.8533 76.7119 45.6C76.7119 46.1467 76.5452 46.6333 76.2119 47.06C75.8785 47.4867 75.4719 47.8133 74.9919 48.04C73.9785 48.4933 73.0985 48.7667 72.3519 48.86L71.8519 48.92C71.9985 49.8 72.4385 50.24 73.1719 50.24C73.4919 50.24 73.8452 50.1733 74.2319 50.04C74.6185 49.8933 74.9252 49.7467 75.1519 49.6L75.4919 49.4L76.1319 50.26C76.1319 50.26 76.0585 50.3333 75.9119 50.48C75.8319 50.56 75.6385 50.72 75.3319 50.96C75.0385 51.1867 74.7252 51.3867 74.3919 51.56C74.0719 51.7333 73.6585 51.8867 73.1519 52.02C72.6452 52.1667 72.1385 52.24 71.6319 52.24C70.4985 52.24 69.6185 51.9133 68.9919 51.26C68.3785 50.5933 68.0719 49.6333 68.0719 48.38ZM71.7719 47.6C72.1585 47.5467 72.5452 47.2333 72.9319 46.66C73.3185 46.0733 73.5119 45.5867 73.5119 45.2C73.5119 44.8 73.3985 44.6 73.1719 44.6C72.8385 44.6 72.5319 44.86 72.2519 45.38C71.9719 45.9 71.8119 46.64 71.7719 47.6ZM83.9381 49.3C83.9381 50.1267 83.5515 50.8267 82.7781 51.4C82.0181 51.96 81.1248 52.24 80.0981 52.24C79.0715 52.24 78.2248 52.0667 77.5581 51.72C76.9048 51.3733 76.5781 51.0467 76.5781 50.74C76.5781 50.42 76.7781 50.02 77.1781 49.54C77.5915 49.0467 78.0115 48.76 78.4381 48.68C79.0515 49.0133 79.6048 49.7533 80.0981 50.9C80.4848 50.9 80.6781 50.7733 80.6781 50.52C80.6781 50.3333 80.6248 50.16 80.5181 50C80.4115 49.84 80.3315 49.7133 80.2781 49.62C80.2248 49.5267 80.1315 49.4 79.9981 49.24C79.8648 49.0667 79.7648 48.94 79.6981 48.86C79.3648 48.46 79.0648 48.0933 78.7981 47.76C78.1581 46.96 77.8381 46.26 77.8381 45.66C77.8381 45.0467 78.0315 44.5467 78.4181 44.16C79.0848 43.48 80.0648 43.14 81.3581 43.14C82.1715 43.14 82.8181 43.3 83.2981 43.62C83.7781 43.9267 84.0181 44.3933 84.0181 45.02C84.0181 45.6333 83.6515 46.34 82.9181 47.14C83.5981 47.9267 83.9381 48.6467 83.9381 49.3ZM82.5981 45.64C82.7581 45.3867 82.8381 45.16 82.8381 44.96C82.8381 44.76 82.7515 44.6067 82.5781 44.5C82.4048 44.3933 82.1981 44.34 81.9581 44.34C81.7181 44.34 81.5315 44.4 81.3981 44.52C81.2781 44.6267 81.2181 44.7733 81.2181 44.96C81.2181 45.1467 81.5048 45.56 82.0781 46.2C82.2648 46.0667 82.4381 45.88 82.5981 45.64ZM91.6334 49.3C91.6334 50.1267 91.2468 50.8267 90.4734 51.4C89.7134 51.96 88.8201 52.24 87.7934 52.24C86.7668 52.24 85.9201 52.0667 85.2534 51.72C84.6001 51.3733 84.2734 51.0467 84.2734 50.74C84.2734 50.42 84.4734 50.02 84.8734 49.54C85.2868 49.0467 85.7068 48.76 86.1334 48.68C86.7468 49.0133 87.3001 49.7533 87.7934 50.9C88.1801 50.9 88.3734 50.7733 88.3734 50.52C88.3734 50.3333 88.3201 50.16 88.2134 50C88.1068 49.84 88.0268 49.7133 87.9734 49.62C87.9201 49.5267 87.8268 49.4 87.6934 49.24C87.5601 49.0667 87.4601 48.94 87.3934 48.86C87.0601 48.46 86.7601 48.0933 86.4934 47.76C85.8534 46.96 85.5334 46.26 85.5334 45.66C85.5334 45.0467 85.7268 44.5467 86.1134 44.16C86.7801 43.48 87.7601 43.14 89.0534 43.14C89.8668 43.14 90.5134 43.3 90.9934 43.62C91.4734 43.9267 91.7134 44.3933 91.7134 45.02C91.7134 45.6333 91.3468 46.34 90.6134 47.14C91.2934 47.9267 91.6334 48.6467 91.6334 49.3ZM90.2934 45.64C90.4534 45.3867 90.5334 45.16 90.5334 44.96C90.5334 44.76 90.4468 44.6067 90.2734 44.5C90.1001 44.3933 89.8934 44.34 89.6534 44.34C89.4134 44.34 89.2268 44.4 89.0934 44.52C88.9734 44.6267 88.9134 44.7733 88.9134 44.96C88.9134 45.1467 89.2001 45.56 89.7734 46.2C89.9601 46.0667 90.1334 45.88 90.2934 45.64ZM92.3688 48.38C92.3688 46.7267 92.8688 45.44 93.8688 44.52C94.8821 43.6 96.1288 43.14 97.6088 43.14C98.6354 43.14 99.4554 43.3667 100.069 43.82C100.695 44.26 101.009 44.8533 101.009 45.6C101.009 46.1467 100.842 46.6333 100.509 47.06C100.175 47.4867 99.7688 47.8133 99.2888 48.04C98.2754 48.4933 97.3954 48.7667 96.6488 48.86L96.1488 48.92C96.2954 49.8 96.7354 50.24 97.4688 50.24C97.7888 50.24 98.1421 50.1733 98.5288 50.04C98.9154 49.8933 99.2221 49.7467 99.4488 49.6L99.7888 49.4L100.429 50.26C100.429 50.26 100.355 50.3333 100.209 50.48C100.129 50.56 99.9354 50.72 99.6288 50.96C99.3354 51.1867 99.0221 51.3867 98.6888 51.56C98.3688 51.7333 97.9554 51.8867 97.4488 52.02C96.9421 52.1667 96.4354 52.24 95.9288 52.24C94.7954 52.24 93.9154 51.9133 93.2887 51.26C92.6754 50.5933 92.3688 49.6333 92.3688 48.38ZM96.0688 47.6C96.4554 47.5467 96.8421 47.2333 97.2288 46.66C97.6154 46.0733 97.8088 45.5867 97.8088 45.2C97.8088 44.8 97.6954 44.6 97.4688 44.6C97.1354 44.6 96.8288 44.86 96.5488 45.38C96.2688 45.9 96.1088 46.64 96.0688 47.6ZM101.66 52.12H101.5C101.46 51.9333 101.44 51.6467 101.44 51.26C101.44 50.86 101.6 49.84 101.92 48.2C102.253 46.5467 102.42 45.6133 102.42 45.4C102.42 45.1733 102.36 44.9467 102.24 44.72C102.12 44.48 102 44.3 101.88 44.18L101.7 44L101.74 43.7C102.54 43.4467 103.866 43.32 105.72 43.32C105.893 43.6533 106 44.0467 106.04 44.5C106.853 43.5933 107.573 43.14 108.2 43.14C109.013 43.14 109.46 43.8267 109.54 45.2C109.513 45.2267 109.48 45.2733 109.44 45.34C109.4 45.3933 109.306 45.4933 109.16 45.64C109.013 45.7867 108.86 45.92 108.7 46.04C108.246 46.3467 107.766 46.5267 107.26 46.58C107.246 46.58 107.153 46.4333 106.98 46.14C106.82 45.8467 106.68 45.7 106.56 45.7C106.453 45.7 106.246 45.82 105.94 46.06C105.9 46.3 105.82 46.7067 105.7 47.28C105.593 47.8533 105.506 48.3267 105.44 48.7C105.24 49.6867 105.14 50.5133 105.14 51.18L105.16 51.78C104.573 52.0067 103.406 52.12 101.66 52.12ZM116.342 44.92L114.622 44.78C114.089 47.1667 113.796 48.5533 113.742 48.94C113.702 49.3267 113.682 49.6467 113.682 49.9C113.682 50.14 113.762 50.26 113.922 50.26C114.109 50.26 114.462 50.14 114.982 49.9L115.462 50.86C115.036 51.2467 114.496 51.5733 113.842 51.84C113.189 52.1067 112.556 52.24 111.942 52.24C111.342 52.24 110.862 52.0867 110.502 51.78C110.142 51.46 109.962 51.0133 109.962 50.44C109.962 49.8667 110.129 48.9467 110.462 47.68C110.796 46.4133 111.016 45.4733 111.122 44.86C110.802 44.8867 110.329 44.9333 109.702 45C109.649 44.72 109.622 44.46 109.622 44.22C109.622 43.9667 109.656 43.6867 109.722 43.38H111.322C111.336 43.2067 111.342 42.6267 111.342 41.64L111.302 40.82C112.596 40.3933 113.829 40.18 115.002 40.18C115.096 40.3933 115.142 40.7667 115.142 41.3C115.142 41.82 115.056 42.5133 114.882 43.38H116.682C116.682 43.9267 116.569 44.44 116.342 44.92ZM126.444 52.24C125.551 52.24 124.711 52.0667 123.924 51.72C123.244 51.9733 122.511 52.1 121.724 52.1C120.951 52.1 120.537 52.0933 120.484 52.08C120.484 51.16 120.851 49.1733 121.584 46.12C122.317 43.0533 122.684 41.3133 122.684 40.9C122.684 40.4733 122.604 40.0933 122.444 39.76C122.297 39.4267 122.144 39.1733 121.984 39L121.764 38.76L121.824 38.3C122.211 38.2067 122.984 38.1 124.144 37.98C125.317 37.86 126.331 37.8 127.184 37.8C129.237 37.8 130.757 38.2267 131.744 39.08C132.744 39.92 133.244 41.2733 133.244 43.14C133.244 44.5933 132.977 46.0067 132.444 47.38C131.924 48.74 131.131 49.8933 130.064 50.84C128.997 51.7733 127.791 52.24 126.444 52.24ZM127.464 39.22C127.224 39.22 126.964 39.24 126.684 39.28C126.644 40.0533 126.304 41.8333 125.664 44.62C125.024 47.3933 124.631 49.2933 124.484 50.32C124.724 50.44 125.011 50.5 125.344 50.5C126.051 50.5 126.677 50.18 127.224 49.54C127.784 48.9 128.211 48.1 128.504 47.14C129.077 45.1933 129.364 43.4267 129.364 41.84C129.364 40.88 129.217 40.2067 128.924 39.82C128.644 39.42 128.157 39.22 127.464 39.22ZM134.257 52.12H134.097C134.057 51.9333 134.037 51.6467 134.037 51.26C134.037 50.86 134.197 49.84 134.517 48.2C134.851 46.5467 135.017 45.6133 135.017 45.4C135.017 45.1733 134.957 44.9467 134.837 44.72C134.717 44.48 134.597 44.3 134.477 44.18L134.297 44L134.337 43.7C135.137 43.4467 136.464 43.32 138.317 43.32C138.491 43.6533 138.597 44.0467 138.637 44.5C139.451 43.5933 140.171 43.14 140.797 43.14C141.611 43.14 142.057 43.8267 142.137 45.2C142.111 45.2267 142.077 45.2733 142.037 45.34C141.997 45.3933 141.904 45.4933 141.757 45.64C141.611 45.7867 141.457 45.92 141.297 46.04C140.844 46.3467 140.364 46.5267 139.857 46.58C139.844 46.58 139.751 46.4333 139.577 46.14C139.417 45.8467 139.277 45.7 139.157 45.7C139.051 45.7 138.844 45.82 138.537 46.06C138.497 46.3 138.417 46.7067 138.297 47.28C138.191 47.8533 138.104 48.3267 138.037 48.7C137.837 49.6867 137.737 50.5133 137.737 51.18L137.757 51.78C137.171 52.0067 136.004 52.12 134.257 52.12ZM141.509 48.38C141.509 46.7267 142.009 45.44 143.009 44.52C144.023 43.6 145.269 43.14 146.749 43.14C147.776 43.14 148.596 43.3667 149.209 43.82C149.836 44.26 150.149 44.8533 150.149 45.6C150.149 46.1467 149.983 46.6333 149.649 47.06C149.316 47.4867 148.909 47.8133 148.429 48.04C147.416 48.4933 146.536 48.7667 145.789 48.86L145.289 48.92C145.436 49.8 145.876 50.24 146.609 50.24C146.929 50.24 147.283 50.1733 147.669 50.04C148.056 49.8933 148.363 49.7467 148.589 49.6L148.929 49.4L149.569 50.26C149.569 50.26 149.496 50.3333 149.349 50.48C149.269 50.56 149.076 50.72 148.769 50.96C148.476 51.1867 148.163 51.3867 147.829 51.56C147.509 51.7333 147.096 51.8867 146.589 52.02C146.083 52.1667 145.576 52.24 145.069 52.24C143.936 52.24 143.056 51.9133 142.429 51.26C141.816 50.5933 141.509 49.6333 141.509 48.38ZM145.209 47.6C145.596 47.5467 145.983 47.2333 146.369 46.66C146.756 46.0733 146.949 45.5867 146.949 45.2C146.949 44.8 146.836 44.6 146.609 44.6C146.276 44.6 145.969 44.86 145.689 45.38C145.409 45.9 145.249 46.64 145.209 47.6ZM160.18 43.9C159.9 44.7667 159.66 45.8 159.46 47C159.26 48.1867 159.16 49.02 159.16 49.5C159.16 49.9667 159.234 50.2 159.38 50.2L160.38 49.92L160.74 50.92C160.314 51.2533 159.767 51.56 159.1 51.84C158.447 52.1067 157.867 52.24 157.36 52.24C156.494 52.24 155.947 51.8667 155.72 51.12C154.667 51.8667 153.734 52.24 152.92 52.24C152.12 52.24 151.5 51.9467 151.06 51.36C150.62 50.7733 150.4 49.9333 150.4 48.84C150.4 47.3333 150.787 46.0067 151.56 44.86C152.334 43.7133 153.354 43.14 154.62 43.14C155.314 43.14 156.02 43.3333 156.74 43.72C156.847 43.48 156.934 43.3067 157 43.2C157.96 43.2 159.02 43.4333 160.18 43.9ZM154.16 48.6C154.16 49.2667 154.207 49.6867 154.3 49.86C154.394 50.0333 154.567 50.12 154.82 50.12C155.074 50.12 155.32 50.02 155.56 49.82C155.614 48.2733 155.867 46.6533 156.32 44.96C156.12 44.84 155.887 44.78 155.62 44.78C155.367 44.78 155.134 44.9267 154.92 45.22C154.72 45.5133 154.567 45.88 154.46 46.32C154.26 47.16 154.16 47.92 154.16 48.6ZM161.645 52.12H161.145C161.145 51.1733 161.325 49.8533 161.685 48.16C162.059 46.4533 162.245 45.5067 162.245 45.32C162.245 45.1333 162.185 44.9267 162.065 44.7C161.945 44.4733 161.825 44.3 161.705 44.18L161.525 44L161.565 43.7C162.339 43.4467 163.705 43.32 165.665 43.32C165.812 43.6267 165.912 43.9533 165.965 44.3C167.125 43.54 168.105 43.16 168.905 43.16C169.332 43.16 169.692 43.2733 169.985 43.5C170.292 43.7267 170.505 44.0267 170.625 44.4C171.732 43.5733 172.745 43.16 173.665 43.16C174.265 43.16 174.732 43.3467 175.065 43.72C175.412 44.08 175.585 44.52 175.585 45.04C175.585 45.5467 175.439 46.3733 175.145 47.52C174.852 48.6667 174.705 49.4067 174.705 49.74C174.705 50.06 174.759 50.22 174.865 50.22L175.905 49.96L176.265 50.96C175.865 51.28 175.312 51.5733 174.605 51.84C173.912 52.1067 173.285 52.24 172.725 52.24C171.579 52.24 171.005 51.66 171.005 50.5C171.005 50.0067 171.145 49.1667 171.425 47.98C171.705 46.7933 171.845 46.0733 171.845 45.82C171.845 45.5533 171.745 45.42 171.545 45.42C171.265 45.42 170.965 45.5333 170.645 45.76C170.605 45.96 170.499 46.44 170.325 47.2C169.952 48.9067 169.765 50.42 169.765 51.74C169.152 51.9667 167.959 52.08 166.185 52.08C166.145 51.9333 166.125 51.5867 166.125 51.04C166.125 50.4933 166.272 49.5267 166.565 48.14C166.859 46.7533 167.005 45.9533 167.005 45.74C167.005 45.5267 166.912 45.42 166.725 45.42C166.499 45.42 166.205 45.5267 165.845 45.74C165.805 45.9667 165.679 46.5467 165.465 47.48C165.012 49.44 164.785 50.8667 164.785 51.76C164.159 52 163.112 52.12 161.645 52.12ZM183.606 49.3C183.606 50.1267 183.219 50.8267 182.446 51.4C181.686 51.96 180.793 52.24 179.766 52.24C178.739 52.24 177.893 52.0667 177.226 51.72C176.573 51.3733 176.246 51.0467 176.246 50.74C176.246 50.42 176.446 50.02 176.846 49.54C177.259 49.0467 177.679 48.76 178.106 48.68C178.719 49.0133 179.273 49.7533 179.766 50.9C180.153 50.9 180.346 50.7733 180.346 50.52C180.346 50.3333 180.293 50.16 180.186 50C180.079 49.84 179.999 49.7133 179.946 49.62C179.893 49.5267 179.799 49.4 179.666 49.24C179.533 49.0667 179.433 48.94 179.366 48.86C179.033 48.46 178.733 48.0933 178.466 47.76C177.826 46.96 177.506 46.26 177.506 45.66C177.506 45.0467 177.699 44.5467 178.086 44.16C178.753 43.48 179.733 43.14 181.026 43.14C181.839 43.14 182.486 43.3 182.966 43.62C183.446 43.9267 183.686 44.3933 183.686 45.02C183.686 45.6333 183.319 46.34 182.586 47.14C183.266 47.9267 183.606 48.6467 183.606 49.3ZM182.266 45.64C182.426 45.3867 182.506 45.16 182.506 44.96C182.506 44.76 182.419 44.6067 182.246 44.5C182.073 44.3933 181.866 44.34 181.626 44.34C181.386 44.34 181.199 44.4 181.066 44.52C180.946 44.6267 180.886 44.7733 180.886 44.96C180.886 45.1467 181.173 45.56 181.746 46.2C181.933 46.0667 182.106 45.88 182.266 45.64Z" fill="black"/>
</svg>
